<svg xmlns="http://www.w3.org/2000/svg" viewBox="0 0 64 64">
  <defs>
    <linearGradient id="bg" x1="0" y1="0" x2="1" y2="1">
      <stop offset="0%" stop-color="#07122d"/>
      <stop offset="100%" stop-color="#0b234f"/>
    </linearGradient>
    <radialGradient id="glow" cx="45%" cy="45%" r="60%">
      <stop offset="0%" stop-color="#3f87ff" stop-opacity="0.8"/>
      <stop offset="100%" stop-color="#3f87ff" stop-opacity="0"/>
    </radialGradient>
    <linearGradient id="tail" x1="0" y1="0" x2="1" y2="1">
      <stop offset="0%" stop-color="#b8d4ff"/>
      <stop offset="100%" stop-color="#4d709e"/>
    </linearGradient>
    <linearGradient id="beam" x1="0" y1="0" x2="1" y2="1">
      <stop offset="0%" stop-color="#2835ff" stop-opacity="0.10"/>
      <stop offset="100%" stop-color="#2835ff" stop-opacity="0.38"/>
    </linearGradient>
  </defs>
  <rect width="64" height="64" rx="14" fill="url(#bg)"/>
  <circle cx="30" cy="30" r="18" fill="url(#glow)"/>
  <path d="M18 18 C 30 20, 42 22, 54 28" fill="none" stroke="url(#tail)" stroke-width="8" stroke-linecap="round"/>
  <path d="M18 18 C 30 20, 42 22, 54 28" fill="none" stroke="#4d709e" stroke-width="3.5" stroke-linecap="round"/>
  <path d="M33 31 L 58 37 L 56 48 L 32 35 Z" fill="url(#beam)"/>
  <circle cx="30" cy="30" r="11" fill="#6fa1ff" stroke="#eef6ff" stroke-width="2"/>
  <circle cx="27" cy="27" r="3.1" fill="#ffffff" fill-opacity="0.3"/>
  <g transform="translate(50 44)">
    <circle r="5" fill="#e63b64"/>
    <g stroke="#ffd6df" stroke-width="1.4" stroke-linecap="round">
      <line x1="0" y1="-7" x2="0" y2="-10"/>
      <line x1="5" y1="-5" x2="7" y2="-7"/>
      <line x1="7" y1="0" x2="10" y2="0"/>
      <line x1="5" y1="5" x2="7" y2="7"/>
      <line x1="0" y1="7" x2="0" y2="10"/>
      <line x1="-5" y1="5" x2="-7" y2="7"/>
      <line x1="-7" y1="0" x2="-10" y2="0"/>
      <line x1="-5" y1="-5" x2="-7" y2="-7"/>
    </g>
  </g>
  <circle cx="12" cy="46" r="4.2" fill="#ffce48" stroke="#fff0ba" stroke-width="1.4"/>
</svg>